#!OML:ASF E:\CV Data\Top Level 1\Subject 1\Session 1\player.ASF
:FULLY-SPECIFIED
:DEGREES
1203
root -3.00716 17.2219 3.04409 -0.0991389 -2.71481 -7.4969
lowerback 11.8507 1.65249 3.35641
upperback 0.30205 2.89307 3.66015
thorax -6.36582 1.37152 1.47014
lowerneck -16.3929 -11.8791 -14.6163
upperneck 13.5317 -16.3884 18.4789
head 9.85849 -6.8798 6.31935
rclavicle 8.44835e-015 7.95139e-016
rhumerus 349.14 382.326 640.005
rradius 63.7992
rwrist -18.8544
rhand -22.0217 10.9909
rfingers 7.12502
rthumb 4.38786 -18.9436
lclavicle 8.44835e-015 7.95139e-016
lhumerus -33.4043 12.6754 80.713
lradius 32.6776
lwrist -11.3198
lhand -10.3179 4.04403
lfingers 7.12502
lthumb 15.6775 33.4289
rfemur -7.78296 3.38559 27.1653
rtibia 35.2123
rfoot -24.2815 -15.2619
rtoes -1.48982
lfemur -24.5001 -0.898062 -0.795524
ltibia 41.8855
lfoot -16.4937 -0.132729
ltoes -9.96139
1204
root -3.02466 17.2305 3.00742 -0.0200543 -2.86893 -7.38752
lowerback 11.7966 1.55005 3.41486
upperback 0.287611 2.76627 3.72294
thorax -6.35077 1.30874 1.52659
lowerneck -16.6397 -11.7736 -14.573
upperneck 13.7129 -16.1953 18.2526
head 9.90145 -6.78859 6.26344
rclavicle -4.12478e-015 -3.26007e-014
rhumerus 347.246 382.162 638.778
rradius 62.0204
rwrist -19.5038
rhand -21.3989 9.6209
rfingers 7.12502
rthumb 4.98919 -20.3004
lclavicle -4.12478e-015 -3.26007e-014
lhumerus -33.078 11.9048 81.445
lradius 32.4389
lwrist -12.8949
lhand -9.52461 3.3321
lfingers 7.12502
lthumb 16.4414 32.6554
rfemur -8.03774 3.58467 27.1221
rtibia 35.2763
rfoot -24.1624 -15.2866
rtoes -1.23118
lfemur -24.4824 -0.300789 -1.37854
ltibia 42.8815
lfoot -16.9256 -0.31716
ltoes -10.7991
1205
root -3.04089 17.2386 2.97202 0.054293 -3.05274 -7.26016
lowerback 11.7494 1.46546 3.45148
upperback 0.280441 2.66035 3.78855
thorax -6.33306 1.25693 1.59446
lowerneck -16.9037 -11.6757 -14.5475
upperneck 13.8987 -16.0035 18.014
head 9.95026 -6.69946 6.20507
rclavicle -2.96438e-014 -7.95139e-015
rhumerus 345.443 381.764 637.634
rradius 60.1176
rwrist -20.0292
rhand -20.7839 8.10385
rfingers 7.12502
rthumb 5.58295 -21.8026
lclavicle -2.96438e-014 -7.95139e-015
lhumerus -32.7669 11.165 82.1535
lradius 32.2886
lwrist -14.5015
lhand -8.79059 2.68588
lfingers 7.12502
lthumb 17.148 31.9492
rfemur -8.29397 3.75761 27.0434
rtibia 35.3546
rfoot -24.0532 -15.2548
rtoes -1.01425
lfemur -24.4273 0.30464 -1.9922
ltibia 43.8489
lfoot -17.3184 -0.361043
ltoes -11.4556
1206
root -3.05619 17.2462 2.93814 0.123528 -3.26997 -7.12151
lowerback 11.7058 1.3998 3.46933
upperback 0.283872 2.57678 3.85716
thorax -6.3071 1.2168 1.6721
lowerneck -17.1837 -11.5847 -14.5369
upperneck 14.0712 -15.8129 17.7765
head 9.99971 -6.61167 6.14841
rclavicle -8.94531e-015 3.97569e-016
rhumerus 343.745 381.109 636.593
rradius 58.1004
rwrist -20.2797
rhand -20.1713 6.46524
rfingers 7.12502
rthumb 6.17442 -23.4248
lclavicle -8.94531e-015 3.97569e-016
lhumerus -32.4728 10.4804 82.8261
lradius 32.2295
lwrist -16.1236
lhand -8.15856 1.9805
lfingers 7.12502
lthumb 17.7563 31.1898
rfemur -8.54971 3.90822 26.9386
rtibia 35.4467
rfoot -23.9575 -15.1675
rtoes -0.826715
lfemur -24.3318 0.920994 -2.62457
ltibia 44.7779
lfoot -17.68 -0.307906
ltoes -11.9121
1207
root -3.07078 17.2529 2.90561 0.190444 -3.51267 -6.97837
lowerback 11.6607 1.34927 3.47267
upperback 0.299708 2.51071 3.92949
thorax -6.26781 1.18591 1.75887
lowerneck -17.4794 -11.5012 -14.5325
upperneck 14.2244 -15.6251 17.5388
head 10.047 -6.52584 6.09123
rclavicle -2.5842e-015 2.54444e-014
rhumerus 342.169 380.201 635.677
rradius 55.9767
rwrist -20.2297
rhand -19.6019 4.80073
rfingers 7.12502
rthumb 6.72412 -25.0725
lclavicle -2.5842e-015 2.54444e-014
lhumerus -32.2048 9.8627 83.4578
lradius 32.2819
lwrist -17.6971
lhand -7.66333 1.22996
lfingers 7.12502
lthumb 18.2328 30.3954
rfemur -8.80774 4.04178 26.8192
rtibia 35.5538
rfoot -23.8794 -15.0369
rtoes -0.660483
lfemur -24.2036 1.53997 -3.26464
ltibia 45.6608
lfoot -18.0138 -0.193873
ltoes -12.1927
1208
root -3.08486 17.2587 2.87449 0.257349 -3.77712 -6.83084
lowerback 11.6089 1.31208 3.45994
upperback 0.326897 2.45912 4.00258
thorax -6.21339 1.16277 1.85311
lowerneck -17.7717 -11.4222 -14.5309
upperneck 14.3414 -15.4395 17.3128
head 10.0835 -6.44185 6.03776
rclavicle -1.49585e-014 8.74653e-015
rhumerus 340.725 379.038 634.902
rradius 53.7447
rwrist -19.8606
rhand -19.1031 3.20943
rfingers 7.12502
rthumb 7.2056 -26.6479
lclavicle -1.49585e-014 8.74653e-015
lhumerus -31.9678 9.31686 84.0406
lradius 32.4542
lwrist -19.1613
lhand -7.28384 0.506198
lfingers 7.12502
lthumb 18.5978 29.6372
rfemur -9.07091 4.16397 26.6883
rtibia 35.6776
rfoot -23.8198 -14.8738
rtoes -0.497522
lfemur -24.0472 2.16017 -3.9102
ltibia 46.4914
lfoot -18.3259 -0.048771
ltoes -12.3655
1209
root -3.09849 17.2633 2.84477 0.323723 -4.06433 -6.6809
lowerback 11.5534 1.28651 3.43262
upperback 0.360797 2.42026 4.07429
thorax -6.15031 1.14633 1.95194
lowerneck -18.0479 -11.3434 -14.5245
upperneck 14.4213 -15.2535 17.0975
head 10.1052 -6.35883 5.9874
rclavicle -1.68967e-015 7.95139e-015
rhumerus 339.41 377.628 634.278
rradius 51.4071
rwrist -19.2186
rhand -18.6912 1.75653
rfingers 7.12502
rthumb 7.60318 -28.0868
lclavicle -1.68967e-015 7.95139e-015
lhumerus -31.7797 8.84088 84.5722
lradius 32.7608
lwrist -20.4076
lhand -7.00067 -0.131522
lfingers 7.12502
lthumb 18.8702 28.9732
rfemur -9.33988 4.28405 26.5505
rtibia 35.8205
rfoot -23.7796 -14.6873
rtoes -0.336922
lfemur -23.8623 2.78297 -4.55711
ltibia 47.2647
lfoot -18.6237 0.101704
ltoes -12.4822
1210
root -3.11179 17.2668 2.81621 0.392437 -4.35902 -6.52659
lowerback 11.487 1.26564 3.39113
upperback 0.401037 2.38429 4.14002
thorax -6.07458 1.1317 2.05205
lowerneck -18.3035 -11.2605 -14.506
upperneck 14.464 -15.0654 16.8986
head 10.1111 -6.27518 5.94149
rclavicle -4.42296e-015 -2.22639e-014
rhumerus 338.237 375.972 633.815
rradius 48.9632
rwrist -18.3636
rhand -18.389 0.498016
rfingers 7.12502
rthumb 7.8949 -29.3346
lclavicle -4.42296e-015 -2.22639e-014
lhumerus -31.6337 8.43215 85.0479
lradius 33.1824
lwrist -21.3752
lhand -6.79712 -0.627051
lfingers 7.12502
lthumb 19.0659 28.4585
rfemur -9.61923 4.40573 26.4072
rtibia 35.9845
rfoot -23.7584 -14.495
rtoes -0.179405
lfemur -23.6598 3.39907 -5.20638
ltibia 47.9765
lfoot -18.9157 0.230866
ltoes -12.5888
1211
root -3.12485 17.2691 2.7889 0.465437 -4.6685 -6.37202
lowerback 11.4185 1.24833 3.3355
upperback 0.438579 2.35098 4.20171
thorax -6.00081 1.11859 2.15535
lowerneck -18.5316 -11.1689 -14.4696
upperneck 14.4777 -14.87 16.7043
head 10.1001 -6.18925 5.89626
rclavicle -1.61016e-014 -3.49861e-014
rhumerus 337.193 374.088 633.522
rradius 46.4251
rwrist -17.3732
rhand -18.2244 -0.505319
rfingers 7.12502
rthumb 8.05377 -30.3319
lclavicle -1.61016e-014 -3.49861e-014
lhumerus -31.5453 8.08541 85.4692
lradius 33.7082
lwrist -22.0081
lhand -6.62327 -0.93936
lfingers 7.12502
lthumb 19.2331 28.1296
rfemur -9.91183 4.54034 26.264
rtibia 36.1708
rfoot -23.7506 -14.3027
rtoes -0.0307009
lfemur -23.4402 4.0168 -5.85197
ltibia 48.6241
lfoot -19.2069 0.321553
ltoes -12.7382
1212
root -3.13775 17.2703 2.76271 0.545438 -4.98686 -6.21952
lowerback 11.3466 1.23128 3.26901
upperback 0.468369 2.31654 4.25756
thorax -5.9334 1.10498 2.25872
lowerneck -18.734 -11.0661 -14.4124
upperneck 14.4821 -14.668 16.5143
head 10.0794 -6.10058 5.85124
rclavicle 1.10822e-014 -1.43125e-014
rhumerus 336.264 371.976 633.403
rradius 43.8197
rwrist -16.2984
rhand -18.2284 -1.22636
rfingers 7.12502
rthumb 8.04989 -31.0531
lclavicle 1.10822e-014 -1.43125e-014
lhumerus -31.5252 7.77193 85.8439
lradius 34.3375
lwrist -22.2501
lhand -6.49063 -1.04232
lfingers 7.12502
lthumb 19.3607 28.0139
rfemur -10.2202 4.68558 26.1239
rtibia 36.3777
rfoot -23.7538 -14.1151
rtoes 0.1107
lfemur -23.2112 4.63302 -6.49013
ltibia 49.2067
lfoot -19.5015 0.356249
ltoes -12.9258
